<svg width="901" height="227" viewBox="0 0 901 227" fill="none" xmlns="http://www.w3.org/2000/svg">
<rect x="1.23333" y="1.23333" width="897.967" height="224.533" stroke="white" stroke-width="2.46667"/>
<rect width="276.183" height="227" fill="white"/>
<path d="M324.815 90.1048V78.5682H379.169V90.1048H358.908V144.75H345.077V90.1048H324.815ZM404.911 145.719C399.891 145.719 395.55 144.653 391.888 142.52C388.247 140.366 385.435 137.371 383.453 133.537C381.471 129.68 380.48 125.21 380.48 120.126C380.48 114.998 381.471 110.517 383.453 106.683C385.435 102.826 388.247 99.8317 391.888 97.6989C395.55 95.5445 399.891 94.4673 404.911 94.4673C409.931 94.4673 414.261 95.5445 417.902 97.6989C421.564 99.8317 424.386 102.826 426.368 106.683C428.35 110.517 429.341 114.998 429.341 120.126C429.341 125.21 428.35 129.68 426.368 133.537C424.386 137.371 421.564 140.366 417.902 142.52C414.261 144.653 409.931 145.719 404.911 145.719ZM404.975 135.055C407.259 135.055 409.166 134.409 410.695 133.116C412.225 131.802 413.377 130.014 414.153 127.752C414.95 125.49 415.349 122.916 415.349 120.029C415.349 117.142 414.95 114.567 414.153 112.305C413.377 110.043 412.225 108.255 410.695 106.941C409.166 105.627 407.259 104.97 404.975 104.97C402.67 104.97 400.731 105.627 399.159 106.941C397.608 108.255 396.433 110.043 395.636 112.305C394.861 114.567 394.473 117.142 394.473 120.029C394.473 122.916 394.861 125.49 395.636 127.752C396.433 130.014 397.608 131.802 399.159 133.116C400.731 134.409 402.67 135.055 404.975 135.055ZM448.66 144.75L435.152 95.1136H449.08L456.771 128.463H457.224L465.238 95.1136H478.907L487.051 128.269H487.471L495.033 95.1136H508.928L495.453 144.75H480.878L472.347 113.533H471.733L463.202 144.75H448.66ZM531.858 116.054V144.75H518.092V95.1136H531.212V103.871H531.794C532.892 100.984 534.734 98.7006 537.319 97.0202C539.905 95.3183 543.039 94.4673 546.723 94.4673C550.17 94.4673 553.175 95.2214 555.739 96.7294C558.303 98.2375 560.296 100.392 561.718 103.192C563.139 105.972 563.85 109.289 563.85 113.146V144.75H550.084V115.602C550.106 112.564 549.33 110.194 547.757 108.492C546.185 106.769 544.019 105.907 541.262 105.907C539.409 105.907 537.772 106.306 536.35 107.103C534.95 107.9 533.851 109.063 533.054 110.593C532.278 112.101 531.88 113.921 531.858 116.054ZM570.081 90.1048V78.5682H624.436V90.1048H604.174V144.75H590.343V90.1048H570.081ZM629.794 144.75V95.1136H643.141V103.774H643.658C644.562 100.693 646.081 98.3667 648.214 96.794C650.347 95.1998 652.803 94.4027 655.582 94.4027C656.271 94.4027 657.015 94.4458 657.812 94.532C658.609 94.6181 659.309 94.7366 659.912 94.8874V107.103C659.266 106.909 658.372 106.736 657.23 106.586C656.088 106.435 655.043 106.359 654.095 106.359C652.07 106.359 650.261 106.801 648.666 107.684C647.094 108.546 645.844 109.752 644.918 111.304C644.013 112.855 643.561 114.643 643.561 116.668V144.75H629.794ZM681.582 145.687C678.415 145.687 675.593 145.138 673.115 144.039C670.638 142.919 668.677 141.271 667.234 139.095C665.812 136.897 665.101 134.161 665.101 130.887C665.101 128.129 665.607 125.813 666.62 123.939C667.632 122.065 669.011 120.557 670.756 119.415C672.501 118.273 674.483 117.411 676.702 116.83C678.943 116.248 681.291 115.839 683.747 115.602C686.634 115.3 688.961 115.02 690.727 114.761C692.494 114.481 693.776 114.072 694.573 113.533C695.37 112.995 695.768 112.198 695.768 111.142V110.948C695.768 108.902 695.122 107.318 693.829 106.198C692.558 105.078 690.749 104.517 688.4 104.517C685.923 104.517 683.952 105.067 682.487 106.165C681.022 107.243 680.052 108.6 679.578 110.237L666.846 109.203C667.492 106.187 668.763 103.58 670.659 101.383C672.555 99.1638 675 97.4619 677.995 96.277C681.011 95.0705 684.501 94.4673 688.465 94.4673C691.223 94.4673 693.862 94.7905 696.382 95.4368C698.924 96.0831 701.176 97.0849 703.136 98.4421C705.118 99.7994 706.68 101.544 707.822 103.677C708.964 105.788 709.535 108.32 709.535 111.271V144.75H696.479V137.867H696.091C695.294 139.418 694.228 140.786 692.892 141.971C691.557 143.134 689.952 144.05 688.077 144.718C686.203 145.364 684.038 145.687 681.582 145.687ZM685.524 136.186C687.549 136.186 689.338 135.788 690.889 134.991C692.44 134.172 693.657 133.073 694.54 131.695C695.424 130.316 695.865 128.754 695.865 127.009V121.741C695.434 122.022 694.842 122.28 694.088 122.517C693.355 122.732 692.526 122.937 691.6 123.131C690.673 123.303 689.747 123.465 688.821 123.616C687.894 123.745 687.054 123.864 686.3 123.971C684.684 124.208 683.273 124.585 682.067 125.102C680.86 125.619 679.923 126.319 679.255 127.203C678.587 128.065 678.253 129.142 678.253 130.434C678.253 132.309 678.932 133.741 680.289 134.732C681.668 135.702 683.413 136.186 685.524 136.186ZM740.325 145.558C736.555 145.558 733.141 144.588 730.081 142.65C727.044 140.689 724.631 137.813 722.843 134.021C721.076 130.208 720.193 125.533 720.193 119.996C720.193 114.309 721.108 109.58 722.94 105.81C724.771 102.018 727.205 99.1854 730.243 97.3111C733.302 95.4152 736.652 94.4673 740.293 94.4673C743.072 94.4673 745.388 94.9413 747.241 95.8892C749.115 96.8156 750.623 97.9789 751.765 99.3793C752.928 100.758 753.812 102.115 754.415 103.451H754.835V78.5682H768.569V144.75H754.997V136.8H754.415C753.769 138.179 752.853 139.547 751.668 140.904C750.505 142.24 748.986 143.35 747.112 144.233C745.259 145.116 742.997 145.558 740.325 145.558ZM744.688 134.603C746.907 134.603 748.781 134 750.311 132.793C751.862 131.565 753.047 129.853 753.865 127.655C754.706 125.458 755.126 122.883 755.126 119.932C755.126 116.98 754.716 114.417 753.898 112.241C753.079 110.065 751.894 108.384 750.343 107.2C748.792 106.015 746.907 105.422 744.688 105.422C742.426 105.422 740.519 106.036 738.968 107.264C737.417 108.492 736.243 110.194 735.446 112.37C734.649 114.546 734.25 117.067 734.25 119.932C734.25 122.819 734.649 125.372 735.446 127.591C736.264 129.788 737.439 131.511 738.968 132.761C740.519 133.989 742.426 134.603 744.688 134.603ZM804.328 145.719C799.222 145.719 794.827 144.685 791.143 142.617C787.481 140.527 784.659 137.576 782.677 133.763C780.695 129.928 779.704 125.393 779.704 120.158C779.704 115.052 780.695 110.571 782.677 106.715C784.659 102.859 787.449 99.8532 791.047 97.6989C794.666 95.5445 798.91 94.4673 803.779 94.4673C807.053 94.4673 810.102 94.9951 812.924 96.0508C815.768 97.0849 818.245 98.6468 820.357 100.737C822.489 102.826 824.148 105.455 825.333 108.621C826.518 111.767 827.11 115.451 827.11 119.673V123.454H785.197V114.923H814.152C814.152 112.941 813.721 111.185 812.859 109.656C811.998 108.126 810.802 106.93 809.272 106.069C807.764 105.185 806.009 104.744 804.005 104.744C801.915 104.744 800.063 105.228 798.447 106.198C796.853 107.146 795.603 108.428 794.698 110.043C793.793 111.638 793.33 113.415 793.309 115.375V123.487C793.309 125.942 793.761 128.065 794.666 129.853C795.592 131.641 796.896 133.02 798.576 133.989C800.256 134.958 802.249 135.443 804.554 135.443C806.084 135.443 807.484 135.228 808.755 134.797C810.026 134.366 811.114 133.72 812.019 132.858C812.924 131.996 813.613 130.941 814.087 129.691L826.82 130.531C826.173 133.59 824.848 136.262 822.845 138.545C820.863 140.808 818.299 142.574 815.154 143.845C812.03 145.095 808.421 145.719 804.328 145.719Z" fill="white"/>
<path d="M324.232 91.3548V79.8182H378.586V91.3548H358.324V146H344.493V91.3548H324.232ZM404.327 146.969C399.308 146.969 394.967 145.903 391.304 143.77C387.663 141.616 384.852 138.621 382.87 134.787C380.888 130.93 379.897 126.46 379.897 121.376C379.897 116.248 380.888 111.767 382.87 107.933C384.852 104.076 387.663 101.082 391.304 98.9489C394.967 96.7945 399.308 95.7173 404.327 95.7173C409.347 95.7173 413.677 96.7945 417.318 98.9489C420.981 101.082 423.803 104.076 425.785 107.933C427.767 111.767 428.758 116.248 428.758 121.376C428.758 126.46 427.767 130.93 425.785 134.787C423.803 138.621 420.981 141.616 417.318 143.77C413.677 145.903 409.347 146.969 404.327 146.969ZM404.392 136.305C406.676 136.305 408.582 135.659 410.112 134.366C411.641 133.052 412.794 131.264 413.57 129.002C414.367 126.74 414.765 124.166 414.765 121.279C414.765 118.392 414.367 115.817 413.57 113.555C412.794 111.293 411.641 109.505 410.112 108.191C408.582 106.877 406.676 106.22 404.392 106.22C402.087 106.22 400.148 106.877 398.575 108.191C397.024 109.505 395.85 111.293 395.053 113.555C394.277 115.817 393.89 118.392 393.89 121.279C393.89 124.166 394.277 126.74 395.053 129.002C395.85 131.264 397.024 133.052 398.575 134.366C400.148 135.659 402.087 136.305 404.392 136.305ZM448.077 146L434.569 96.3636H448.497L456.188 129.713H456.64L464.654 96.3636H478.324L486.467 129.519H486.887L494.449 96.3636H508.345L494.869 146H480.295L471.764 114.783H471.15L462.618 146H448.077ZM531.275 117.304V146H517.508V96.3636H530.628V105.121H531.21C532.309 102.234 534.151 99.9506 536.736 98.2702C539.321 96.5683 542.456 95.7173 546.14 95.7173C549.587 95.7173 552.592 96.4714 555.156 97.9794C557.719 99.4875 559.712 101.642 561.134 104.442C562.556 107.222 563.267 110.539 563.267 114.396V146H549.5V116.852C549.522 113.814 548.746 111.444 547.174 109.742C545.601 108.019 543.436 107.157 540.678 107.157C538.826 107.157 537.188 107.556 535.766 108.353C534.366 109.15 533.267 110.313 532.47 111.843C531.695 113.351 531.296 115.171 531.275 117.304ZM569.498 91.3548V79.8182H623.852V91.3548H603.591V146H589.76V91.3548H569.498ZM629.211 146V96.3636H642.557V105.024H643.074C643.979 101.943 645.498 99.6167 647.631 98.044C649.763 96.4498 652.219 95.6527 654.998 95.6527C655.688 95.6527 656.431 95.6958 657.228 95.782C658.025 95.8681 658.725 95.9866 659.329 96.1374V108.353C658.682 108.159 657.788 107.986 656.647 107.836C655.505 107.685 654.46 107.609 653.512 107.609C651.487 107.609 649.677 108.051 648.083 108.934C646.51 109.796 645.261 111.002 644.334 112.554C643.43 114.105 642.977 115.893 642.977 117.918V146H629.211ZM680.998 146.937C677.832 146.937 675.009 146.388 672.532 145.289C670.054 144.169 668.094 142.521 666.65 140.345C665.229 138.147 664.518 135.411 664.518 132.137C664.518 129.379 665.024 127.063 666.036 125.189C667.049 123.315 668.428 121.807 670.173 120.665C671.918 119.523 673.9 118.661 676.119 118.08C678.359 117.498 680.708 117.089 683.164 116.852C686.05 116.55 688.377 116.27 690.144 116.011C691.91 115.731 693.192 115.322 693.989 114.783C694.786 114.245 695.185 113.448 695.185 112.392V112.198C695.185 110.152 694.539 108.568 693.246 107.448C691.975 106.328 690.165 105.767 687.817 105.767C685.339 105.767 683.368 106.317 681.903 107.415C680.438 108.493 679.469 109.85 678.995 111.487L666.263 110.453C666.909 107.437 668.18 104.83 670.076 102.633C671.972 100.414 674.417 98.7119 677.411 97.527C680.428 96.3205 683.918 95.7173 687.882 95.7173C690.639 95.7173 693.278 96.0405 695.799 96.6868C698.341 97.3331 700.592 98.3349 702.553 99.6921C704.535 101.049 706.097 102.794 707.238 104.927C708.38 107.038 708.951 109.57 708.951 112.521V146H695.896V139.117H695.508C694.711 140.668 693.644 142.036 692.309 143.221C690.973 144.384 689.368 145.3 687.494 145.968C685.619 146.614 683.454 146.937 680.998 146.937ZM684.941 137.436C686.966 137.436 688.754 137.038 690.305 136.241C691.856 135.422 693.074 134.323 693.957 132.945C694.84 131.566 695.282 130.004 695.282 128.259V122.991C694.851 123.272 694.258 123.53 693.504 123.767C692.772 123.982 691.943 124.187 691.016 124.381C690.09 124.553 689.163 124.715 688.237 124.866C687.311 124.995 686.47 125.114 685.716 125.221C684.101 125.458 682.69 125.835 681.483 126.352C680.277 126.869 679.34 127.569 678.672 128.453C678.004 129.315 677.67 130.392 677.67 131.684C677.67 133.559 678.349 134.991 679.706 135.982C681.085 136.952 682.83 137.436 684.941 137.436ZM739.742 146.808C735.972 146.808 732.557 145.838 729.498 143.9C726.46 141.939 724.047 139.063 722.259 135.271C720.493 131.458 719.609 126.783 719.609 121.246C719.609 115.559 720.525 110.83 722.356 107.06C724.187 103.268 726.622 100.435 729.659 98.5611C732.719 96.6652 736.069 95.7173 739.71 95.7173C742.489 95.7173 744.805 96.1913 746.657 97.1392C748.532 98.0656 750.04 99.2289 751.181 100.629C752.345 102.008 753.228 103.365 753.831 104.701H754.251V79.8182H767.985V146H754.413V138.05H753.831C753.185 139.429 752.269 140.797 751.085 142.154C749.921 143.49 748.402 144.6 746.528 145.483C744.675 146.366 742.413 146.808 739.742 146.808ZM744.104 135.853C746.323 135.853 748.198 135.25 749.727 134.043C751.278 132.815 752.463 131.103 753.282 128.905C754.122 126.708 754.542 124.133 754.542 121.182C754.542 118.23 754.133 115.667 753.314 113.491C752.496 111.315 751.311 109.634 749.76 108.45C748.208 107.265 746.323 106.672 744.104 106.672C741.842 106.672 739.936 107.286 738.385 108.514C736.833 109.742 735.659 111.444 734.862 113.62C734.065 115.796 733.667 118.317 733.667 121.182C733.667 124.069 734.065 126.622 734.862 128.841C735.681 131.038 736.855 132.761 738.385 134.011C739.936 135.239 741.842 135.853 744.104 135.853ZM803.745 146.969C798.639 146.969 794.244 145.935 790.56 143.867C786.898 141.777 784.075 138.826 782.093 135.013C780.111 131.178 779.12 126.643 779.12 121.408C779.12 116.302 780.111 111.821 782.093 107.965C784.075 104.109 786.865 101.103 790.463 98.9489C794.082 96.7945 798.326 95.7173 803.195 95.7173C806.47 95.7173 809.518 96.2451 812.341 97.3008C815.184 98.3349 817.662 99.8968 819.773 101.987C821.906 104.076 823.565 106.705 824.75 109.871C825.935 113.017 826.527 116.701 826.527 120.923V124.704H784.614V116.173H813.569C813.569 114.191 813.138 112.435 812.276 110.906C811.414 109.376 810.218 108.18 808.689 107.319C807.181 106.435 805.425 105.994 803.422 105.994C801.332 105.994 799.479 106.478 797.863 107.448C796.269 108.396 795.02 109.678 794.115 111.293C793.21 112.888 792.747 114.665 792.725 116.625V124.737C792.725 127.192 793.178 129.315 794.082 131.103C795.009 132.891 796.312 134.27 797.993 135.239C799.673 136.208 801.666 136.693 803.971 136.693C805.5 136.693 806.901 136.478 808.172 136.047C809.443 135.616 810.531 134.97 811.436 134.108C812.341 133.246 813.03 132.191 813.504 130.941L826.236 131.781C825.59 134.84 824.265 137.512 822.261 139.795C820.279 142.058 817.716 143.824 814.57 145.095C811.446 146.345 807.838 146.969 803.745 146.969Z" fill="white"/>
<path d="M142.111 82.6772H158.292C159.224 82.6746 160.148 82.8569 161.009 83.2136C161.87 83.5703 162.651 84.0942 163.308 84.7551L167.226 88.6729C168.322 89.7742 169.624 90.6473 171.059 91.2416C172.494 91.836 174.033 92.1398 175.586 92.1355H207.137V87.4063H185.856V49.6559C185.854 47.7751 185.106 45.972 183.776 44.6422C182.446 43.3123 180.643 42.5642 178.762 42.5621H105.46C103.579 42.5642 101.776 43.3123 100.446 44.6422C99.1166 45.972 98.3685 47.7751 98.3664 49.6559V89.9922C97.0079 90.3529 95.8071 91.1534 94.9515 92.2686C94.0959 93.3839 93.6338 94.751 93.6372 96.1566C93.6407 97.5622 94.1095 98.9271 94.9705 100.038C95.8315 101.149 97.0363 101.944 98.3965 102.298L130.036 110.552C137.55 112.504 145.283 113.49 153.046 113.486C159.031 113.489 165.001 112.901 170.87 111.732L174.267 111.052H207.137V106.323H173.799L169.942 107.094C157.119 109.641 143.885 109.259 131.23 105.975L99.5905 97.7217C99.2052 97.6212 98.8698 97.3838 98.6469 97.0538C98.424 96.7239 98.329 96.324 98.3797 95.9291C98.4303 95.5341 98.6232 95.1712 98.9221 94.9082C99.221 94.6452 99.6056 94.5001 100.004 94.5001H157.481V89.7709H142.111C141.17 89.7709 140.268 89.3972 139.603 88.7321C138.938 88.0669 138.564 87.1647 138.564 86.2241C138.564 85.2834 138.938 84.3812 139.603 83.716C140.268 83.0509 141.17 82.6772 142.111 82.6772ZM119.648 47.2913H129.106V66.2079H119.648V47.2913ZM133.835 86.2241C133.834 87.4512 134.107 88.6631 134.635 89.7709H103.096V49.6559C103.096 49.0289 103.346 48.4279 103.789 47.9846C104.232 47.5413 104.833 47.292 105.46 47.2913H114.918V70.9371H133.835V47.2913H178.762C179.389 47.292 179.99 47.5413 180.433 47.9846C180.877 48.4279 181.126 49.0289 181.127 49.6559V87.4063H175.586C174.654 87.4089 173.731 87.2266 172.87 86.87C172.009 86.5134 171.227 85.9895 170.57 85.3287L166.653 81.4112C165.557 80.3097 164.254 79.4365 162.819 78.8421C161.384 78.2476 159.846 77.9437 158.292 77.948H142.111C139.917 77.9505 137.813 78.8232 136.262 80.3747C134.71 81.9263 133.838 84.0299 133.835 86.2241Z" fill="#029246"/>
<path d="M172.396 160.708H170.277C172.75 156.394 174.045 151.505 174.033 146.532C174.021 141.559 172.702 136.677 170.209 132.374C167.715 128.072 164.134 124.5 159.826 122.017C155.517 119.535 150.631 118.228 145.658 118.229H133.835C129.642 118.229 125.502 119.159 121.711 120.951C117.92 122.743 114.574 125.352 111.912 128.592C109.25 131.832 107.34 135.621 106.317 139.687C105.294 143.753 105.186 147.996 105.998 152.109C105.914 152.188 105.829 152.266 105.747 152.348L101.829 156.266C101.172 156.927 100.39 157.451 99.5294 157.807C98.6683 158.164 97.7451 158.346 96.8132 158.344H65.2622V163.073H96.8132C98.3664 163.077 99.905 162.773 101.34 162.179C102.775 161.585 104.078 160.712 105.173 159.61L109.091 155.692C109.748 155.032 110.53 154.508 111.391 154.151C112.252 153.794 113.175 153.612 114.107 153.615H130.288C131.229 153.615 132.131 153.988 132.796 154.654C133.461 155.319 133.835 156.221 133.835 157.162C133.835 158.102 133.461 159.004 132.796 159.67C132.131 160.335 131.229 160.708 130.288 160.708H114.918V165.438H172.396C172.794 165.438 173.178 165.583 173.477 165.846C173.776 166.109 173.969 166.472 174.02 166.867C174.07 167.261 173.975 167.661 173.753 167.991C173.53 168.321 173.194 168.559 172.809 168.659L141.169 176.913C128.514 180.196 115.281 180.579 102.457 178.032L98.6005 177.261H65.2622V181.99H98.1323L101.53 182.669C115.056 185.356 129.015 184.953 142.363 181.489L174.003 173.235C175.501 172.844 176.805 171.921 177.672 170.638C178.538 169.355 178.907 167.8 178.71 166.265C178.513 164.729 177.764 163.318 176.601 162.295C175.439 161.273 173.944 160.708 172.396 160.708ZM167.324 137.145H160.587C158.609 131.588 154.955 126.782 150.131 123.388C153.895 124.12 157.426 125.755 160.42 128.151C163.414 130.547 165.783 133.633 167.324 137.145ZM152.811 160.708H137.764C138.363 159.447 138.633 158.055 138.549 156.661C138.465 155.267 138.03 153.917 137.284 152.737C136.537 151.557 135.505 150.585 134.281 149.911C133.058 149.238 131.685 148.885 130.288 148.886H114.107C112.836 148.885 111.573 149.089 110.367 149.49C109.895 145.654 110.37 141.761 111.751 138.151C113.132 134.541 115.377 131.325 118.289 128.784C121.202 126.243 124.692 124.454 128.456 123.575C132.219 122.696 136.141 122.752 139.878 123.74C143.614 124.728 147.052 126.616 149.89 129.24C152.727 131.864 154.878 135.144 156.155 138.792C157.431 142.44 157.793 146.346 157.21 150.166C156.628 153.987 155.117 157.607 152.811 160.708ZM164.634 160.708H158.454C159.301 159.227 160.013 157.672 160.582 156.062H167.323C166.606 157.708 165.704 159.267 164.634 160.708ZM168.82 151.333H161.809C162.342 148.203 162.344 145.005 161.814 141.875H168.828C169.465 144.995 169.462 148.213 168.82 151.333Z" fill="#029246"/>
<path d="M72.8197 146.65L71.8923 151.287L86.0339 154.116L88.8622 139.974L84.2248 139.046L83.124 144.55C77.5942 135.139 74.6921 124.415 74.7206 113.5C74.7291 104.922 76.5282 96.4415 80.0027 88.5996C83.4773 80.7576 88.5508 73.7274 94.8985 67.959L91.7205 64.4571C84.8847 70.6691 79.4211 78.2399 75.6794 86.6849C71.9378 95.1298 70.0004 104.263 69.9914 113.5C69.9594 125.685 73.319 137.64 79.6944 148.025L72.8197 146.65Z" fill="#029246"/>
<path d="M189.167 123.431L192.004 127.214L196.855 123.576C194.738 136.329 188.652 148.088 179.463 157.18L182.791 160.54C192.024 151.402 198.363 139.748 201.018 127.031L202.577 130.93L206.968 129.174L201.093 114.486L189.167 123.431Z" fill="#029246"/>
</svg>
